<?xml version="1.0" standalone="no"?><!DOCTYPE svg PUBLIC "-//W3C//DTD SVG 1.1//EN" "http://www.w3.org/Graphics/SVG/1.1/DTD/svg11.dtd"><svg t="1762956802508" class="icon" viewBox="0 0 1024 1024" version="1.1" xmlns="http://www.w3.org/2000/svg" p-id="8071" xmlns:xlink="http://www.w3.org/1999/xlink" width="256" height="256"><path d="M727 157.9c-34-40.2-99-88-215.8-88C314 69.9 244 213.9 244 337.1c0 26.5 21.5 48.1 48.1 48.1s48.1-21.5 48.1-48.1c0-51.4 16.7-171.1 171.1-171.1 63.2 0 112.5 18.7 142.4 54 24.7 29.1 34.9 68.9 28.2 109.2C668.1 411.6 643 433 569.4 478c-97.2 59.3-113.6 115.6-113.6 219.3 0 26.5 21.5 48.1 48.1 48.1 26.5 0 48.1-21.5 48.1-48.1 0-83.4 8.9-101.4 67.6-137.3 84-51.3 136.5-91.4 157.2-215 11.3-68.1-6.8-136.3-49.8-187.1zM503.8 806.8c-40.7 0-73.7 33-73.7 73.7s33 73.7 73.7 73.7 73.7-33 73.7-73.7c0-40.8-33-73.7-73.7-73.7z" fill="#999999" p-id="8072"></path></svg>